<?xml version="1.0" encoding="UTF-8" standalone="no"?>
<!DOCTYPE svg PUBLIC "-//W3C//DTD SVG 1.1//EN" "http://www.w3.org/Graphics/SVG/1.1/DTD/svg11.dtd">
<svg width="100%" height="100%" viewBox="0 0 154 149" version="1.1" xmlns="http://www.w3.org/2000/svg" xmlns:xlink="http://www.w3.org/1999/xlink" xml:space="preserve" xmlns:serif="http://www.serif.com/" style="fill-rule:evenodd;clip-rule:evenodd;stroke-linejoin:round;stroke-miterlimit:1.41421;">
    <g transform="matrix(1,0,0,1,-351,-1223)">
        <g transform="matrix(1.44219,0,0,1.24307,26.695,1171.6)">
            <g>
                <g>
                    <g transform="matrix(2.3869,0,0,2.76923,281.732,157.565)">
                        <path d="M0,0C0,-0.598 -0.485,-1.083 -1.082,-1.083C-1.68,-1.083 -2.165,-0.598 -2.165,0C-2.165,0.598 -1.68,1.083 -1.082,1.083C-0.485,1.083 0,0.598 0,0"/>
                    </g>
                    <g transform="matrix(2.3869,0,0,2.76923,230.542,109.728)">
                        <path d="M0,0.001C0,-0.597 -0.485,-1.082 -1.082,-1.082C-1.68,-1.082 -2.165,-0.597 -2.165,0.001C-2.165,0.598 -1.68,1.083 -1.082,1.083C-0.485,1.083 0,0.598 0,0.001"/>
                    </g>
                    <g transform="matrix(2.3869,0,0,2.76923,237.148,65.3449)">
                        <path d="M0,0C0,-0.598 -0.485,-1.083 -1.082,-1.083C-1.68,-1.083 -2.165,-0.598 -2.165,0C-2.165,0.598 -1.68,1.083 -1.082,1.083C-0.485,1.083 0,0.598 0,0"/>
                    </g>
                    <g transform="matrix(2.3869,0,0,2.76923,328.983,112.727)">
                        <ellipse cx="0" cy="-1.083" rx="1.083" ry="1.083"/>
                    </g>
                    <g transform="matrix(2.3869,0,0,2.76923,323.082,68.344)">
                        <ellipse cx="0" cy="-1.083" rx="1.083" ry="1.083"/>
                    </g>
                    <g transform="matrix(2.3869,0,0,2.76923,307.755,99.4925)">
                        <circle cx="0" cy="-1.083" r="1.083"/>
                    </g>
                    <g transform="matrix(2.3869,0,0,2.76923,248.344,99.4925)">
                        <ellipse cx="0" cy="-1.083" rx="1.083" ry="1.083"/>
                    </g>
                    <g transform="matrix(2.3869,0,0,2.76923,246.108,146.888)">
                        <ellipse cx="0" cy="-1.083" rx="1.083" ry="1.083"/>
                    </g>
                    <g transform="matrix(2.3869,0,0,2.76923,314.716,143.889)">
                        <path d="M0,0C0,-0.598 -0.485,-1.083 -1.083,-1.083C-1.681,-1.083 -2.166,-0.598 -2.166,0C-2.166,0.598 -1.681,1.083 -1.083,1.083C-0.485,1.083 0,0.598 0,0"/>
                    </g>
                    <g transform="matrix(2.3869,0,0,2.76923,281.732,129.586)">
                        <path d="M0,0C0,-0.598 -0.485,-1.083 -1.082,-1.083C-1.68,-1.083 -2.165,-0.598 -2.165,0C-2.165,0.598 -1.68,1.083 -1.082,1.083C-0.485,1.083 0,0.598 0,0"/>
                    </g>
                    <g transform="matrix(2.3869,0,0,2.76923,273.048,133.064)">
                        <path d="M0,8.535C0.125,7.515 0.847,6.682 1.807,6.389L1.807,1.203C1.167,1.007 0.637,0.573 0.313,0L-8.727,3.678C-8.72,3.755 -8.703,3.83 -8.703,3.909C-8.703,4.425 -8.858,4.902 -9.12,5.306C-6.418,7.013 -3.322,8.146 0,8.535"/>
                    </g>
                    <g transform="matrix(2.3869,0,0,2.76923,323.082,102.721)">
                        <path d="M0,-10.914C-0.286,-10.914 -0.558,-10.972 -0.815,-11.059L-4.589,-4.065C-4.125,-3.599 -3.838,-2.957 -3.838,-2.249C-3.838,-2.096 -3.857,-1.946 -3.884,-1.8L0.843,0.545C1.288,0.178 1.852,-0.052 2.473,-0.052C2.807,-0.052 3.124,0.017 3.417,0.133C3.506,-0.667 3.556,-1.479 3.556,-2.303C3.556,-5.543 2.853,-8.649 1.568,-11.459C1.132,-11.123 0.592,-10.914 0,-10.914"/>
                    </g>
                    <g transform="matrix(2.3869,0,0,2.76923,245.908,95.5555)">
                        <path d="M0,0.035L0.02,0.024L0.007,0C0.003,0.011 0.003,0.023 0,0.035"/>
                    </g>
                    <g transform="matrix(2.3869,0,0,2.76923,246.108,104.217)">
                        <path d="M0,11.743C0.808,11.743 1.521,12.123 1.995,12.706L11.283,8.928C11.307,8.672 11.358,8.424 11.451,8.195L2.207,-0.554C1.83,-0.339 1.4,-0.206 0.937,-0.206C0.226,-0.206 -0.42,-0.495 -0.887,-0.963L-5.125,1.306C-5.064,1.526 -5.021,1.753 -5.021,1.991C-5.021,3.149 -5.794,4.121 -6.847,4.447C-5.77,7.495 -4.04,10.234 -1.823,12.499C-1.356,12.032 -0.711,11.743 0,11.743"/>
                    </g>
                    <g transform="matrix(2.3869,0,0,2.76923,240.729,97.731)">
                        <path d="M0,-11.695C0,-10.985 -0.288,-10.341 -0.753,-9.875L2.744,-2.985C2.89,-3.01 3.037,-3.03 3.19,-3.03C4.614,-3.03 5.773,-1.871 5.773,-0.447C5.773,-0.034 5.667,0.352 5.493,0.7L13.774,8.537C12.967,6.279 11.446,2.436 8.587,-4.096C5.913,-10.207 4.796,-11.303 4.613,-11.454C4.481,-11.504 4.364,-11.591 4.278,-11.707C4.137,-11.896 4.093,-12.14 4.159,-12.368L6.483,-20.232C3.379,-18.721 0.751,-16.54 -1.278,-13.912C-0.517,-13.462 0,-12.641 0,-11.695"/>
                    </g>
                    <g transform="matrix(2.3869,0,0,2.76923,306.597,96.0894)">
                        <path d="M0,-10.858C-0.186,-10.705 -1.299,-9.602 -3.963,-3.512C-6.679,2.693 -8.186,6.478 -9.021,8.781L-1.771,1.377C-1.973,1.01 -2.098,0.594 -2.098,0.146C-2.098,-1.278 -0.938,-2.437 0.485,-2.437C0.661,-2.437 0.833,-2.419 0.998,-2.385L4.86,-9.545C4.529,-9.978 4.324,-10.514 4.324,-11.102C4.324,-12.132 4.935,-13.017 5.81,-13.431C3.792,-16.008 1.196,-18.15 -1.863,-19.639L0.461,-11.775C0.528,-11.545 0.482,-11.295 0.336,-11.105C0.248,-10.991 0.131,-10.907 0,-10.858"/>
                    </g>
                    <g transform="matrix(2.3869,0,0,2.76923,227.96,73.1605)">
                        <path d="M0,10.623C0.64,10.623 1.219,10.866 1.671,11.253L6.009,8.931C5.977,8.767 5.958,8.599 5.958,8.426C5.958,7.695 6.266,7.037 6.755,6.567L3.274,-0.291C3.11,-0.258 2.941,-0.239 2.768,-0.239C2.272,-0.239 1.813,-0.387 1.419,-0.63C0.181,2.139 -0.492,5.192 -0.492,8.372C-0.492,9.144 -0.451,9.908 -0.372,10.661C-0.25,10.643 -0.128,10.623 0,10.623"/>
                    </g>
                    <g transform="matrix(2.3869,0,0,2.76923,305.965,145.925)">
                        <path d="M0,-0.735C0,-0.813 0.017,-0.887 0.023,-0.964L-9.001,-4.629C-9.324,-4.062 -9.851,-3.635 -10.484,-3.441L-10.484,1.744C-9.523,2.039 -8.803,2.872 -8.678,3.894C-5.361,3.509 -2.27,2.383 0.43,0.685C0.159,0.277 0,-0.211 0,-0.735"/>
                    </g>
                    <g transform="matrix(2.3869,0,0,2.76923,322.818,131.112)">
                        <path d="M0,-7.721C0,-7.975 0.049,-8.216 0.117,-8.448L-4.453,-10.715C-4.923,-10.226 -5.58,-9.918 -6.311,-9.918C-6.74,-9.918 -7.139,-10.034 -7.495,-10.22L-15.939,-1.599C-15.824,-1.341 -15.76,-1.06 -15.734,-0.766L-6.473,2.994C-5.998,2.412 -5.285,2.031 -4.478,2.031C-3.754,2.031 -3.102,2.332 -2.632,2.813C-0.429,0.57 1.298,-2.142 2.381,-5.159C1.053,-5.265 0,-6.367 0,-7.721"/>
                    </g>
                    <g transform="matrix(2.3869,0,0,2.76923,95.1971,-55.2191)">
                        <path d="M81.195,47.454C81.195,45.179 79.349,43.327 77.078,43.327C74.808,43.327 72.962,45.179 72.962,47.454C72.962,49.474 74.419,51.152 76.333,51.506L77.078,64.077L77.824,51.506C79.738,51.151 81.195,49.474 81.195,47.454ZM77.079,44.887C78.49,44.887 79.635,46.033 79.635,47.443C79.635,48.854 78.49,50 77.079,50C75.668,50 74.522,48.854 74.522,47.443C74.522,46.033 75.668,44.887 77.079,44.887Z" style="fill-rule:nonzero;"/>
                    </g>
                </g>
            </g>
        </g>
    </g>
</svg>
