<svg xmlns="http://www.w3.org/2000/svg" viewBox="0 0 24 24" fill="none" stroke="white" stroke-width="2" stroke-linecap="round" stroke-linejoin="round">
  <rect x="2" y="3" width="4" height="3" rx="0.5"/>
  <rect x="8" y="3" width="4" height="3" rx="0.5"/>
  <rect x="14" y="3" width="4" height="3" rx="0.5"/>
  <rect x="2" y="9" width="4" height="3" rx="0.5"/>
  <rect x="8" y="9" width="4" height="3" rx="0.5"/>
  <rect x="14" y="9" width="4" height="3" rx="0.5"/>
  <rect x="2" y="15" width="4" height="3" rx="0.5"/>
  <rect x="8" y="15" width="4" height="3" rx="0.5"/>
  <rect x="14" y="15" width="4" height="3" rx="0.5"/>
  <rect x="2" y="21" width="4" height="3" rx="0.5"/>
  <rect x="8" y="21" width="4" height="3" rx="0.5"/>
  <rect x="14" y="21" width="4" height="3" rx="0.5"/>
</svg>
