<svg fill="#808184" xmlns="http://www.w3.org/2000/svg" viewBox="0 0 50 50" width="50px" height="50px">
  <path d="M25 2 C 12.309 2 2 12.309 2 25 C 2 37.691 12.309 48 25 48 C 37.691 48 48 37.691 48 25 C 48 12.309 37.691 2 25 2 z M 25 4 C 36.598 4 46 13.402 46 25 C 46 36.598 36.598 46 25 46 C 13.402 46 4 36.598 4 25 C 4 13.402 13.402 4 25 4 z"/>
  <path d="M32.5 17.5H34.5L34 20H33V35L33.03 35.02C33.42 35.04 33.75 35.38 33.75 35.78V36.5L33.78 36.52C34.17 36.54 34.5 36.88 34.5 37.28V38H28V37.28C28 36.88 28.33 36.54 28.72 36.52L28.75 36.5V35.78C28.75 35.38 29.08 35.04 29.47 35.02L29.5 35V29.5C29.5 27.29 27.71 25.5 25.5 25.5C23.29 25.5 21.5 27.29 21.5 29.5V35L21.53 35.02C21.92 35.04 22.25 35.38 22.25 35.78V36.5L22.28 36.52C22.67 36.54 23 36.88 23 37.28V38H16.5V37.28C16.5 36.88 16.83 36.54 17.22 36.52L17.25 36.5V35.78C17.25 35.38 17.58 35.04 17.97 35.02L18 35V20H17L16.5 17.5H20V15.5H32.5V17.5Z"/>
</svg>
