<!-- Tabler Icons, MIT. Copyright (c) 2020 Paweł Kuna.
Source: https://github.com/tabler/tabler-icons/blob/main/icons/outline/vocabulary.svg
Permission is hereby granted, free of charge, to any person obtaining a copy
of this software and associated documentation files (the "Software"), to deal
in the Software without restriction, including without limitation the rights
to use, copy, modify, merge, publish, distribute, sublicense, and/or sell
copies of the Software, and to permit persons to whom the Software is
furnished to do so, subject to the following conditions:
The above copyright notice and this permission notice shall be included in all
copies or substantial portions of the Software.
THE SOFTWARE IS PROVIDED "AS IS", WITHOUT WARRANTY OF ANY KIND, EXPRESS OR
IMPLIED, INCLUDING BUT NOT LIMITED TO THE WARRANTIES OF MERCHANTABILITY,
FITNESS FOR A PARTICULAR PURPOSE AND NONINFRINGEMENT. IN NO EVENT SHALL THE
AUTHORS OR COPYRIGHT HOLDERS BE LIABLE FOR ANY CLAIM, DAMAGES OR OTHER
LIABILITY, WHETHER IN AN ACTION OF CONTRACT, TORT OR OTHERWISE, ARISING FROM,
OUT OF OR IN CONNECTION WITH THE SOFTWARE OR THE USE OR OTHER DEALINGS IN THE
SOFTWARE. -->
<svg xmlns="http://www.w3.org/2000/svg" class="icon icon-tabler icon-tabler-vocabulary" width="24" height="24" viewBox="0 0 24 24" fill="none" stroke="currentColor" stroke-width="2" stroke-linecap="round" stroke-linejoin="round" aria-hidden="true">
  <path d="M10 19h-6a1 1 0 0 1 -1 -1v-14a1 1 0 0 1 1 -1h6a2 2 0 0 1 2 2a2 2 0 0 1 2 -2h6a1 1 0 0 1 1 1v14a1 1 0 0 1 -1 1h-6a2 2 0 0 0 -2 2a2 2 0 0 0 -2 -2" />
  <path d="M12 5v16" />
  <path d="M7 7h1" />
  <path d="M7 11h1" />
  <path d="M16 7h1" />
  <path d="M16 11h1" />
  <path d="M16 15h1" />
</svg>
